<?xml version="1.0" encoding="utf-8"?>
<!-- Generator: Adobe Illustrator 22.1.0, SVG Export Plug-In . SVG Version: 6.00 Build 0)  -->
<svg version="1.1" xmlns="http://www.w3.org/2000/svg" xmlns:xlink="http://www.w3.org/1999/xlink" x="0px" y="0px"
	 viewBox="0 0 1920 1080" style="enable-background:new 0 0 1920 1080;" xml:space="preserve">
<style type="text/css">
	.st0{fill:#FF3038;stroke:#000000;stroke-miterlimit:10;}
	.st1{fill:#FFFFFF;}
</style>
<g id="Layer_1">
	<circle class="st0" cx="765.5" cy="502" r="332.5"/>
	<circle class="st1" cx="765.5" cy="502" r="268.5"/>
</g>
<g id="Layer_2">
	<g>
		<g>
		</g>
	</g>
	<g>
		<g>
			<path class="st0" d="M576.8,356.4l25.5-3.7l6.9,47.3l16.6-2.4l-6.9-47.3l25.6-3.7l17.9,122.9l-25.6,3.7l-8-54.8l-16.6,2.4l8,54.8
				l-25.5,3.7L576.8,356.4z"/>
			<path class="st0" d="M722.8,405.3l-27.2,4l4.9,33.5l31.9-4.6l0,21.2l-54.3,7.9l-17.9-122.9l54.1-7.9l3,20.9l-28.7,4.2l3.9,26.9
				l27.2-4L722.8,405.3z"/>
			<path class="st0" d="M726.9,334.6l25.5-3.7l14.9,102.3l32-4.6l0.7,21l-55.1,8L726.9,334.6z"/>
			<path class="st0" d="M793,325l25.5-3.7l14.9,102.3l32-4.6l0.7,21l-55.1,8L793,325z"/>
			<path class="st0" d="M930.4,338.6l8.3,57c3.5,24.4-7.3,36.6-30.4,40c-21.9,3.2-34.8-5.9-38.2-29.8l-8.4-57.9
				c-3.5-23.7,9.1-36.1,29.4-39.1C911.6,305.9,926.9,314.1,930.4,338.6z M887.1,342.2l9.1,62.8c1.1,7.6,4.5,11.1,10.2,10.3
				c5.9-0.9,8.1-4.8,6.9-12.9l-9.1-62.9c-1.1-7.7-4-11.3-10.4-10.3C888.4,330,885.9,334,887.1,342.2z"/>
			<path class="st0" d="M629.8,567.2l29-4.2c25.3-3.7,35.5,5.8,39,29.4l6.2,42.9c2.9,19.6,0.9,37.5-27,41.5l-30.6,4.4L629.8,567.2z
				 M667.4,660.1l4.6-0.7c9.2-1.3,10-7.2,8.7-16.1l-7.4-51.1c-1.2-8.4-3.9-12.7-12.8-11.4l-4.4,0.6L667.4,660.1z"/>
			<path class="st0" d="M739.4,640l0.9,27.6l-24,3.5l0.8-116.5l35.1-5.1l34.3,111.4l-24.5,3.6l-7.3-26.6L739.4,640z M749.8,618.7
				c-3.9-14.3-9.5-36.2-12.3-46.9l-0.9,0.1c0.7,8,1.6,34.1,2,48.4L749.8,618.7z"/>
			<path class="st0" d="M795.3,659.6l-16.6-114l26.1-3.8c5.9,13.3,25.7,63.2,27.4,68.1l0.6-0.1c-3.5-15-7.4-35.6-9.7-51.5l-2.7-18.7
				l21.9-3.2l16.6,114l-26.3,3.8c-4.1-10.5-26.1-67.5-27.4-71.1l-0.6,0.1c2.9,13.3,6.9,35.9,9.5,53.8l2.8,19.5L795.3,659.6z"/>
			<path class="st0" d="M856.9,534.2l23.6-3.4l6.4,43.9l15.4-2.2l-6.4-43.9l23.7-3.5l16.6,114l-23.7,3.5l-7.4-50.8l-15.4,2.2
				l7.4,50.8l-23.6,3.4L856.9,534.2z"/>
		</g>
	</g>
</g>
</svg>
